<svg width="23" height="23" viewBox="0 0 23 23" fill="none" xmlns="http://www.w3.org/2000/svg">
<g clip-path="url(#clip0)">
<path d="M16.8056 16.7706C16.4539 16.4206 15.8851 16.4219 15.5351 16.7736L12.3984 19.9254V0.898438C12.3984 0.402231 11.9962 0 11.5 0C11.0038 0 10.6016 0.402231 10.6016 0.898438V19.9255L7.46493 16.7736C7.1149 16.4219 6.54606 16.4205 6.19436 16.7705C5.84263 17.1206 5.84132 17.6895 6.19131 18.0412L10.8632 22.7357C10.8635 22.736 10.8638 22.7362 10.864 22.7365C11.2141 23.0873 11.7848 23.0884 12.136 22.7365C12.1362 22.7362 12.1365 22.736 12.1368 22.7357L16.8087 18.0412C17.1586 17.6896 17.1574 17.1207 16.8056 16.7706Z" fill="white"/>
</g>
<defs>
<clipPath id="clip0">
<rect width="23" height="23" fill="white"/>
</clipPath>
</defs>
</svg>
